<svg xmlns="http://www.w3.org/2000/svg" width="360" height="292" viewBox="0 0 360 292" font-family="-apple-system,BlinkMacSystemFont,'Segoe UI',Roboto,sans-serif">
  <style>
  .bg     { fill: #ffffff; stroke: #e1e4e8; }
  .title  { fill: #2f80ed; font-weight: 600; }
  .label  { fill: #434d58; }
  .value  { fill: #434d58; font-weight: 600; }
  .footer { fill: #6e7781; }
  .bar-bg { fill: #ddd; }
  @media (prefers-color-scheme: dark) {
    .bg     { fill: #0d1117; stroke: #30363d; }
    .title  { fill: #58a6ff; }
    .label  { fill: #c9d1d9; }
    .value  { fill: #c9d1d9; }
    .footer { fill: #8b949e; }
    .bar-bg { fill: #30363d; }
  }
</style>
  <rect x="0.5" y="0.5" rx="6" width="359" height="291" class="bg" stroke-width="1"/>
  <text x="25" y="35" class="title" font-size="18" opacity="1">Most used languages<animate attributeName="opacity" values="1;1;0;0;1" keyTimes="0;0.42;0.5;0.92;1" dur="12s" repeatCount="indefinite"/></text><text x="25" y="35" class="title" font-size="18" opacity="0">Linguagens mais usadas<animate attributeName="opacity" values="0;0;1;1;0" keyTimes="0;0.42;0.5;0.92;1" dur="12s" repeatCount="indefinite"/></text>
  <defs><clipPath id="barclip"><rect x="25" y="60" width="0" height="8" rx="4.0"><animate attributeName="width" from="0" to="310" dur="1.2s" begin="0.1s" fill="freeze"/></rect></clipPath><linearGradient id="shimmer-grad" x1="0%" x2="100%"><stop offset="0%" stop-color="white" stop-opacity="0"/><stop offset="50%" stop-color="white" stop-opacity="0.45"/><stop offset="100%" stop-color="white" stop-opacity="0"/></linearGradient></defs><rect x="25" y="60" width="310" height="8" rx="4.0" class="bar-bg"/><g clip-path="url(#barclip)"><rect x="25" y="60" width="310" height="8" rx="4.0" class="bar-bg"/><rect x="25.00" y="60" width="112.54" height="8" fill="#3178c6"/><rect x="137.54" y="60" width="89.42" height="8" fill="#4F5D95"/><rect x="226.96" y="60" width="59.36" height="8" fill="#00ADD8"/><rect x="286.32" y="60" width="29.29" height="8" fill="#e34c26"/><rect x="315.61" y="60" width="9.61" height="8" fill="#f1e05a"/><rect x="325.23" y="60" width="4.46" height="8" fill="#563d7c"/><rect x="329.68" y="60" width="1.43" height="8" fill="#3572A5"/><rect x="331.12" y="60" width="1.42" height="8" fill="#89e051"/><rect x="332.53" y="60" width="1.25" height="8" fill="#e38c00"/><rect x="333.79" y="60" width="1.17" height="8" fill="#dea584"/><rect x="334.96" y="60" width="0.04" height="8" fill="#8b949e"/><rect x="-90" y="60" width="90" height="8" fill="url(#shimmer-grad)"><animate attributeName="x" values="-90;360;360" keyTimes="0;0.25;1" dur="6s" begin="1.5s" repeatCount="indefinite"/></rect></g>
  <g transform="translate(25, 105)" opacity="0"><circle cx="6" cy="-4" r="5" fill="#3178c6"/><text x="18" y="0" class="label" font-size="12">TypeScript</text><text x="145" y="0" class="value" font-size="12" text-anchor="end" font-family="ui-monospace,SFMono-Regular,Menlo,monospace">36.3%</text><animate attributeName="opacity" from="0" to="1" begin="0.40s" dur="0.45s" fill="freeze"/></g><g transform="translate(180, 105)" opacity="0"><circle cx="6" cy="-4" r="5" fill="#4F5D95"/><text x="18" y="0" class="label" font-size="12">PHP</text><text x="145" y="0" class="value" font-size="12" text-anchor="end" font-family="ui-monospace,SFMono-Regular,Menlo,monospace">28.8%</text><animate attributeName="opacity" from="0" to="1" begin="0.46s" dur="0.45s" fill="freeze"/></g><g transform="translate(25, 133)" opacity="0"><circle cx="6" cy="-4" r="5" fill="#00ADD8"/><text x="18" y="0" class="label" font-size="12">Go</text><text x="145" y="0" class="value" font-size="12" text-anchor="end" font-family="ui-monospace,SFMono-Regular,Menlo,monospace">19.1%</text><animate attributeName="opacity" from="0" to="1" begin="0.52s" dur="0.45s" fill="freeze"/></g><g transform="translate(180, 133)" opacity="0"><circle cx="6" cy="-4" r="5" fill="#e34c26"/><text x="18" y="0" class="label" font-size="12">HTML</text><text x="145" y="0" class="value" font-size="12" text-anchor="end" font-family="ui-monospace,SFMono-Regular,Menlo,monospace">9.4%</text><animate attributeName="opacity" from="0" to="1" begin="0.58s" dur="0.45s" fill="freeze"/></g><g transform="translate(25, 161)" opacity="0"><circle cx="6" cy="-4" r="5" fill="#f1e05a"/><text x="18" y="0" class="label" font-size="12">JavaScript</text><text x="145" y="0" class="value" font-size="12" text-anchor="end" font-family="ui-monospace,SFMono-Regular,Menlo,monospace">3.1%</text><animate attributeName="opacity" from="0" to="1" begin="0.64s" dur="0.45s" fill="freeze"/></g><g transform="translate(180, 161)" opacity="0"><circle cx="6" cy="-4" r="5" fill="#563d7c"/><text x="18" y="0" class="label" font-size="12">CSS</text><text x="145" y="0" class="value" font-size="12" text-anchor="end" font-family="ui-monospace,SFMono-Regular,Menlo,monospace">1.4%</text><animate attributeName="opacity" from="0" to="1" begin="0.70s" dur="0.45s" fill="freeze"/></g><g transform="translate(25, 189)" opacity="0"><circle cx="6" cy="-4" r="5" fill="#3572A5"/><text x="18" y="0" class="label" font-size="12">Python</text><text x="145" y="0" class="value" font-size="12" text-anchor="end" font-family="ui-monospace,SFMono-Regular,Menlo,monospace">0.5%</text><animate attributeName="opacity" from="0" to="1" begin="0.76s" dur="0.45s" fill="freeze"/></g><g transform="translate(180, 189)" opacity="0"><circle cx="6" cy="-4" r="5" fill="#89e051"/><text x="18" y="0" class="label" font-size="12">Shell</text><text x="145" y="0" class="value" font-size="12" text-anchor="end" font-family="ui-monospace,SFMono-Regular,Menlo,monospace">0.5%</text><animate attributeName="opacity" from="0" to="1" begin="0.82s" dur="0.45s" fill="freeze"/></g><g transform="translate(25, 217)" opacity="0"><circle cx="6" cy="-4" r="5" fill="#e38c00"/><text x="18" y="0" class="label" font-size="12">SQL</text><text x="145" y="0" class="value" font-size="12" text-anchor="end" font-family="ui-monospace,SFMono-Regular,Menlo,monospace">0.4%</text><animate attributeName="opacity" from="0" to="1" begin="0.88s" dur="0.45s" fill="freeze"/></g><g transform="translate(180, 217)" opacity="0"><circle cx="6" cy="-4" r="5" fill="#dea584"/><text x="18" y="0" class="label" font-size="12">Rust</text><text x="145" y="0" class="value" font-size="12" text-anchor="end" font-family="ui-monospace,SFMono-Regular,Menlo,monospace">0.4%</text><animate attributeName="opacity" from="0" to="1" begin="0.94s" dur="0.45s" fill="freeze"/></g><g transform="translate(25, 245)" opacity="0"><circle cx="6" cy="-4" r="5" fill="#8b949e"/><text x="18" y="0" class="label" font-size="12">Other</text><text x="145" y="0" class="value" font-size="12" text-anchor="end" font-family="ui-monospace,SFMono-Regular,Menlo,monospace">0.0%</text><animate attributeName="opacity" from="0" to="1" begin="1.00s" dur="0.45s" fill="freeze"/></g>
  <text x="25" y="277" class="footer" font-size="10">Generated locally from 15 repos · 2026-04-27</text>
</svg>
